# xmcd
#
# Track frame offsets: 
#        150
#        12395
#        19447
#        31482
#        41802
#        49002
#        60214
#        69357
#        81085
#        90912
#        104712
#        114240
#        123502
#
# Disc length: 1707 seconds
#
# Revision: 0
# Processed by: cddbd v1.4PL0 Copyright (c) Steve Scherf et al.
# Submitted via: ExactAudioCopy v0.90b3
#
DISCID=a306a90d
DTITLE=Loren Mazzacane Connors - The Carmelites
DYEAR=1997
DGENRE=Blues
TTITLE0=The Carmelites
TTITLE1=Those of Us
TTITLE2=The Bell
TTITLE3=Forever Gone
TTITLE4=These Walls
TTITLE5=Hidden Hands
TTITLE6=A Breath, a Touch, a Stone
TTITLE7=Succesion of Sins
TTITLE8=Night Prayer
TTITLE9=Body and Soul
TTITLE10=Angel of the Wall
TTITLE11=Temptation
TTITLE12=Tomorrow
EXTD=
EXTT0=
EXTT1=
EXTT2=
EXTT3=
EXTT4=
EXTT5=
EXTT6=
EXTT7=
EXTT8=
EXTT9=
EXTT10=
EXTT11=
EXTT12=
PLAYORDER=
